<svg version="1.2" xmlns="http://www.w3.org/2000/svg" viewBox="0 0 32 32" width="32" height="32"><style>.a{fill:#e10716}.b{fill:#f9eb1d}.c{fill:#173b6a}</style><path fill-rule="evenodd" class="a" d="m13 11.1l-6.8 12.7-1.6-2.9 1.8-3.4h-3.6l-0.8-1.5 0.8-1.4h5.2l1.9-3.5z"/><path fill-rule="evenodd" class="b" d="m13.5 21.2h13.7l-1.6 2.9h-3.6l1.8 3.4-0.8 1.5h-1.6l-2.6-4.9h-3.7z"/><path fill-rule="evenodd" class="c" d="m21.5 15.7l-6.9-12.7h3.2l1.8 3.4 1.8-3.4h1.6l0.8 1.5-2.6 4.8 1.8 3.5z"/><path fill-rule="evenodd" class="c" d="m10.5 16.3l6.9 12.7h-3.2l-1.8-3.4-1.8 3.4h-1.6l-0.8-1.5 2.6-4.8-1.8-3.5z"/><path fill-rule="evenodd" class="b" d="m18.5 10.8h-13.7l1.6-3h3.6l-1.8-3.3 0.8-1.5h1.6l2.6 4.8h3.7z"/><path fill-rule="evenodd" class="a" d="m19 20.9l6.8-12.7 1.6 2.9-1.8 3.4h3.6l0.8 1.5-0.8 1.5-5.2-0.1-1.9 3.5z"/></svg>